<?xml version="1.0" encoding="utf-8"?>
<svg width="200" height="124.52397448130483" viewBox="0 0 200 124.52397448130483" class="css-1j8o68f" xmlns="http://www.w3.org/2000/svg">
  <defs id="SvgjsDefs2241">
    <linearGradient id="SvgjsLinearGradient2246">
      <stop id="SvgjsStop2247" stop-color="#b88746" offset="0"/>
      <stop id="SvgjsStop2248" stop-color="#fdf5a6" offset="1"/>
    </linearGradient>
  </defs>
  <g id="SvgjsG2242" featurekey="symbolFeature-0" transform="matrix(1.1265955347374979,0,0,1.1265955347374979,43.669660274786445,-20.89046877073602)" fill="url(#SvgjsLinearGradient2246)">
    <path xmlns="http://www.w3.org/2000/svg" d="M85.657,71.635c-1.26,0-2.285-1.072-2.285-2.39v-3.644c0-1.318,1.025-2.39,2.285-2.39h8.721l-1.041-2.153  c-1.202-2.484-3.259-4.318-5.593-5.566l-0.011-4.405l-11.202-4.711c-0.282-0.769-0.6-1.526-0.947-2.263l4.523-11.278l-6.814-6.776  l-11.254,4.59c-0.748-0.347-1.507-0.659-2.268-0.934l-4.778-11.172l-9.608,0.028l-4.711,11.201  c-0.767,0.281-1.523,0.598-2.263,0.946l-11.278-4.522l-6.777,6.816l4.592,11.25c-0.345,0.742-0.658,1.501-0.936,2.269L12.841,51.31  l0.012,3.877c-2.581,1.244-4.888,3.177-6.192,5.872l-1.042,2.153h8.722c1.26,0,2.285,1.072,2.285,2.39v3.645  c0.001,0.641-0.243,1.244-0.687,1.699c-0.432,0.444-1,0.689-1.599,0.689H8.01l-2.366,0.055l1.043,2.154  c1.315,2.717,2.267,4.681,7.024,6.745c1.309,0.567,2.911,0.868,4.636,0.868c4.088,0,9.294-1.773,12.146-5.712h39.012  c2.853,3.938,8.059,5.712,12.146,5.712c1.724,0,3.327-0.301,4.636-0.868c4.757-2.064,5.707-4.027,7.051-6.8l1.044-2.154H85.657z   M15.848,53.286l10.572-4.522l0.214-0.639c0.357-1.071,0.794-2.131,1.298-3.148l0.3-0.605l-4.348-10.653l3.976-3.998l10.678,4.282  l0.604-0.303c1.013-0.509,2.069-0.95,3.14-1.313l0.64-0.217l4.459-10.604l5.637-0.017l4.521,10.575l0.641,0.213  c1.058,0.352,2.117,0.788,3.149,1.297l0.605,0.298l10.652-4.345l3.998,3.975L72.3,44.241l0.305,0.604  c0.506,1.006,0.947,2.062,1.313,3.138l0.217,0.64l10.604,4.459l0.003,1.16c-1.699-0.525-3.42-0.785-4.979-0.785  c-1.646,0-3.153,0.277-4.359,0.801c-3.994,1.733-4.824,2.91-5.948,4.84c0,0.002-0.001,0.002-0.002,0.004h-4.655  c0.224-1.045,0.348-2.108,0.342-3.187c-0.049-8.152-6.696-14.75-14.838-14.75c-0.029,0-0.06,0-0.089,0  c-3.963,0.023-7.68,1.589-10.466,4.407c-2.786,2.819-4.308,6.555-4.284,10.519c0.006,1.015,0.124,2.021,0.336,3.011h-5.253  c0-0.001-0.001-0.002-0.001-0.003c-1.124-1.931-1.954-3.107-5.948-4.841c-1.206-0.523-2.714-0.801-4.358-0.801  c-1.379,0-2.884,0.206-4.388,0.615L15.848,53.286z M38.883,59.102c-0.268-0.987-0.415-2.002-0.421-3.028  c-0.019-3.163,1.195-6.143,3.418-8.392c2.223-2.25,5.188-3.498,8.35-3.518c0.024,0,0.047,0,0.071,0  c6.495,0,11.799,5.266,11.838,11.768c0.006,1.077-0.136,2.139-0.416,3.17H38.883z M85.092,77.837c-0.934,0.405-2.124,0.62-3.44,0.62  c-3.49,0-7.956-1.544-10.064-4.994l-0.439-0.718H28.851l-0.438,0.718c-2.108,3.45-6.574,4.994-10.065,4.994  c-1.316,0-2.507-0.215-3.441-0.62c-2.506-1.088-3.583-1.965-4.397-3.203h3.832c1.416,0,2.747-0.566,3.749-1.597  c0.991-1.018,1.537-2.365,1.536-3.792v-3.644c-0.001-2.973-2.372-5.39-5.285-5.39h-3.462c2.376-2.473,6.193-3.755,9.359-3.755  c1.237,0,2.332,0.191,3.164,0.553c3.285,1.426,3.682,2.106,4.55,3.598c0.141,0.243,0.291,0.5,0.46,0.777l0.438,0.717h42.298  l0.438-0.717c0.169-0.277,0.319-0.535,0.461-0.777c0.868-1.492,1.265-2.172,4.549-3.598c0.833-0.361,1.928-0.553,3.166-0.553  c3.165,0,6.982,1.281,9.358,3.755h-3.463c-2.914,0-5.285,2.418-5.285,5.39v3.644c0,2.972,2.371,5.389,5.285,5.389h3.835  C88.685,75.864,87.61,76.744,85.092,77.837z"/>
  </g>
  <g id="SvgjsG2243" featurekey="nameFeature-0" transform="matrix(1.099867945695027,0,0,1.099867945695027,-0.043995528115265276,80.19929186434884)" fill="#ffffff">
    <path d="M14.14 15.2 l-5.44 20.16 c-0.46 1.6 -1.26 2.84 -2.4 3.7 c-1.06 0.8 -2.42 1.24 -3.8 1.24 c-0.6 0 -1.12 -0.06 -1.56 -0.16 c-0.56 -0.14 -0.9 -0.34 -0.9 -0.68 c0 -0.4 0.2 -0.62 0.5 -0.62 l0.18 0 c0.04 0 0.1 0.02 0.18 0.04 c0.58 0.16 1.12 0.24 1.66 0.24 c1.24 0 2.32 -0.38 3.22 -1.14 c0.9 -0.74 1.54 -1.76 1.88 -3.06 l5.44 -20.2 c0.42 -1.58 1.2 -2.8 2.38 -3.68 c1.1 -0.82 2.36 -1.22 3.8 -1.22 c0.6 0 1.14 0.06 1.6 0.16 c0.62 0.14 0.92 0.38 0.92 0.68 c0 0.38 -0.26 0.62 -0.52 0.62 c-0.14 0 -0.28 -0.02 -0.38 -0.08 c-0.5 -0.18 -0.94 -0.22 -1.66 -0.22 c-2.5 0 -4.36 1.5 -5.1 4.22 z M32.468 39.98 c-0.3 -0.1 -0.36 -0.22 -0.36 -0.46 c0 -0.1 0.02 -0.18 0.06 -0.28 l12.08 -28.8 c0.1 -0.22 0.24 -0.32 0.42 -0.32 l0.22 0 c0.18 0 0.32 0.14 0.44 0.4 l12 28.68 c0.06 0.16 0.1 0.28 0.1 0.34 c0 0.24 -0.32 0.46 -0.7 0.46 c-0.18 0 -0.32 -0.1 -0.4 -0.32 l-1.84 -4.38 l-19.44 0 l-1.8 4.3 c-0.1 0.28 -0.24 0.42 -0.46 0.42 l-0.14 0 c-0.04 0 -0.1 -0.02 -0.18 -0.04 z M35.508 34.18 l18.52 0 l-9.26 -22.1 z M71.916 10.440000000000001 l19.04 11.24 l0 -10.84 c0 -0.38 0.18 -0.56 0.56 -0.56 s0.56 0.18 0.56 0.56 l0 28.6 c0 0.38 -0.18 0.56 -0.56 0.56 s-0.56 -0.18 -0.56 -0.56 l0 -16.48 l-18.8 -11 l0 27.48 c0 0.38 -0.18 0.56 -0.56 0.56 c-0.4 0 -0.6 -0.18 -0.6 -0.56 l0 -28.6 c0 -0.38 0.14 -0.56 0.44 -0.56 c0.24 0 0.3 0.06 0.48 0.16 z M107.04400000000001 39.44 l0 -28.6 c0 -0.38 0.2 -0.56 0.6 -0.56 c0.38 0 0.56 0.18 0.56 0.56 l0 28.6 c0 0.38 -0.18 0.56 -0.56 0.56 c-0.4 0 -0.6 -0.18 -0.6 -0.56 z M122.53200000000001 10.280000000000001 l21.32 0 c0.4 0 0.6 0.18 0.6 0.56 s-0.2 0.56 -0.6 0.56 l-10.04 0 l0 28.04 c0 0.38 -0.18 0.56 -0.56 0.56 c-0.4 0 -0.6 -0.18 -0.6 -0.56 l0 -28.04 l-10.12 0 c-0.38 0 -0.56 -0.18 -0.56 -0.56 s0.18 -0.56 0.56 -0.56 z M156.92000000000002 39.98 c-0.3 -0.1 -0.36 -0.22 -0.36 -0.46 c0 -0.1 0.02 -0.18 0.06 -0.28 l12.08 -28.8 c0.1 -0.22 0.24 -0.32 0.42 -0.32 l0.22 0 c0.18 0 0.32 0.14 0.44 0.4 l12 28.68 c0.06 0.16 0.1 0.28 0.1 0.34 c0 0.24 -0.32 0.46 -0.7 0.46 c-0.18 0 -0.32 -0.1 -0.4 -0.32 l-1.84 -4.38 l-19.44 0 l-1.8 4.3 c-0.1 0.28 -0.24 0.42 -0.46 0.42 l-0.14 0 c-0.04 0 -0.1 -0.02 -0.18 -0.04 z M159.96 34.18 l18.52 0 l-9.26 -22.1 z" style="fill: rgb(0, 74, 124);"/>
  </g>
</svg>